<svg width="32" height="32" viewBox="0 0 32 32" fill="none" xmlns="http://www.w3.org/2000/svg">
<circle opacity="1" cx="18.5" cy="13.5" r="12.5" fill="#BDF6FF"/>
<path d="M16.0625 1C13.4778 1 11.375 3.10278 11.375 5.6875C11.375 8.27197 13.4778 10.3748 16.0625 10.3748C18.647 10.3748 20.7498 8.27197 20.7498 5.6875C20.7498 3.10278 18.647 1 16.0625 1ZM16.0625 8.5C14.5117 8.5 13.25 7.23828 13.25 5.6875C13.25 4.13672 14.5117 2.875 16.0625 2.875C17.6133 2.875 18.8748 4.13672 18.8748 5.6875C18.8748 7.23828 17.6133 8.5 16.0625 8.5Z" fill="#666666"/>
<path d="M22.625 17.8748C24.6929 17.8748 26.375 16.1924 26.375 14.1248C26.375 12.0571 24.6929 10.3748 22.625 10.3748C20.5574 10.3748 18.875 12.0571 18.875 14.1248C18.875 16.1924 20.5574 17.8748 22.625 17.8748ZM22.625 12.2498C23.6589 12.2498 24.5 13.0908 24.5 14.1248C24.5 15.1587 23.6589 15.9998 22.625 15.9998C21.5913 15.9998 20.75 15.1587 20.75 14.1248C20.75 13.0908 21.5913 12.2498 22.625 12.2498Z" fill="#666666"/>
<path d="M27.5671 21.0134L22.8137 23.4995H22.4638C22.5678 23.2063 22.6244 22.8906 22.6244 22.562C22.6244 21.0112 21.3627 19.7497 19.812 19.7497H16.3459L11.9021 16.7871C11.1294 16.272 10.2304 15.9998 9.30198 15.9998H5.46361C5.07665 14.9087 4.03466 14.1248 2.81249 14.1248H0.937497C0.419677 14.1248 0 14.5444 0 15.0623V28.187C0 28.7048 0.419677 29.1245 0.937497 29.1245H2.81249C3.87914 29.1245 4.80907 28.5275 5.28563 27.6499L11.1045 30.5061C11.7512 30.8288 12.4748 30.9995 13.1975 30.9995H20.7287C21.5996 30.9995 22.4514 30.7575 23.1911 30.3005C31.3151 25.2932 30.8097 25.6103 30.8744 25.562C32.1176 24.6296 32.3695 22.8684 31.4367 21.6247C30.5231 20.4067 28.8034 20.1416 27.5671 21.0134ZM3.74999 26.312C3.74999 26.8288 3.32934 27.2495 2.81249 27.2495H1.87499V15.9998H2.81249C3.32934 15.9998 3.74999 16.4204 3.74999 16.9372V26.312ZM29.7775 24.0403L22.2067 28.7048C21.7621 28.9795 21.2512 29.1245 20.7287 29.1245H13.1975C12.7631 29.1245 12.3283 29.0219 11.9397 28.8276C11.9377 28.8266 11.9355 28.8256 11.9336 28.8244L5.62498 25.728V17.8747H9.30198C9.85886 17.8747 10.3984 18.0381 10.8618 18.3472L15.5422 21.4673C15.696 21.5698 15.8769 21.6247 16.062 21.6247H19.812C20.3288 21.6247 20.7495 22.0451 20.7495 22.562C20.7495 23.0791 20.3288 23.4995 19.812 23.4995H12.3122C11.7944 23.4995 11.3747 23.9194 11.3747 24.437C11.3747 24.9548 11.7944 25.3745 12.3122 25.3745H23.0441C23.1952 25.3745 23.3444 25.3379 23.4785 25.2678C28.7692 22.4958 28.5104 22.6482 28.6244 22.5625C29.038 22.2522 29.6266 22.3364 29.9367 22.7497C30.2402 23.1545 30.1676 23.7243 29.7775 24.0403Z" fill="#666666"/>
</svg>
