<svg width="32" height="32" viewBox="0 0 32 32" fill="none" xmlns="http://www.w3.org/2000/svg">
<g clip-path="url(#clip0)">
<circle opacity="1" cx="19.5" cy="19.5" r="12.5" fill="#BDF6FF"/>
<path d="M31.4119 11.3913C31.0461 10.9808 30.5464 10.7139 30.0018 10.6381V10.6369L21.4973 9.46212L18.1318 1.42039C17.6404 0.2433 16.2878 -0.312533 15.1108 0.178885C14.5497 0.413177 14.1035 0.859263 13.8693 1.42039L10.5038 9.46212L1.99927 10.6369C0.732188 10.8133 -0.152015 11.9836 0.0243569 13.2506C0.100155 13.7952 0.367124 14.2949 0.777587 14.6607L7.18517 20.3746L5.8686 29.3407C5.72598 30.2512 6.14414 31.1583 6.92911 31.6411C7.70303 32.136 8.69852 32.1176 9.4535 31.5943L16.0005 27.142L22.5475 31.5988C23.6039 32.3158 25.0416 32.0407 25.7587 30.9843C26.0845 30.5042 26.2179 29.9191 26.1324 29.3453L24.8159 20.3756L31.2235 14.6617C32.1786 13.8107 32.263 12.3464 31.4119 11.3913ZM22.8343 19.0843C22.5477 19.3404 22.409 19.7234 22.4652 20.1037L23.8365 29.7031L16.6462 24.8143C16.2585 24.5508 15.7493 24.5508 15.3617 24.8143L8.12903 29.6733L9.53579 20.0991C9.59043 19.7204 9.45182 19.3395 9.16664 19.0844L2.30996 12.9042L11.4614 11.6414C11.862 11.5861 12.2036 11.3232 12.3595 10.95L16.0141 2.28551C16.0183 2.29059 16.0214 2.29642 16.0233 2.30265L19.6402 10.9455C19.7962 11.3186 20.1378 11.5816 20.5384 11.6368L29.7013 12.9556L22.8343 19.0843Z" fill="#666666"/>
</g>
<defs>
<clipPath id="clip0">
<rect width="32" height="32" fill="white"/>
</clipPath>
</defs>
</svg>
