<svg width="32" height="32" viewBox="0 0 32 32" fill="none" xmlns="http://www.w3.org/2000/svg">
<g clip-path="url(#clip0)">
<circle opacity="1" cx="14.0002" cy="18.8" r="10.8" fill="#BDF6FF"/>
<path d="M31.842 11.7178L26.6133 3.31698C26.4223 3.01023 26.0866 2.82373 25.7255 2.82373H6.27467C5.91355 2.82373 5.57787 3.01023 5.3868 3.31698L0.158095 11.7178C-0.0929029 12.1211 -0.0409659 12.6426 0.284969 12.988L15.2391 28.8481C15.4367 29.0576 15.7121 29.1765 16 29.1765C16.288 29.1765 16.5633 29.0576 16.761 28.8478L31.7151 12.988C32.0407 12.6422 32.093 12.1211 31.842 11.7178ZM16.0001 26.6064L2.35939 12.1392L6.85573 4.91521H25.1447L29.6407 12.1392L16.0001 26.6064Z" fill="#666666"/>
<path d="M30.9542 11.2244H1.0459V13.3158H30.9542V11.2244Z" fill="#666666"/>
<path d="M10.7415 12.1701L12.354 4.0736L10.3026 3.66504L8.62942 12.0658C8.59005 12.2645 8.60886 12.4702 8.68417 12.6585L15.0284 28.5189L16.9703 27.7423L10.7415 12.1701Z" fill="#666666"/>
<path d="M23.4366 11.982L21.6937 3.8252L19.6486 4.26232L21.3249 12.1064L15.0303 27.7403L16.9701 28.5211L23.3844 12.5913C23.4617 12.3979 23.4802 12.1856 23.4366 11.982Z" fill="#666666"/>
</g>
<defs>
<clipPath id="clip0">
<rect width="32" height="32" fill="white"/>
</clipPath>
</defs>
</svg>
