<svg width="32" height="32" viewBox="0 0 32 32" fill="none" xmlns="http://www.w3.org/2000/svg">
<circle opacity="1" cx="15.5" cy="19.5" r="12.5" fill="#BDF6FF"/>
<path d="M23.5625 9.4375H19.8125C18.2619 9.4375 17 10.6994 17 12.25C17 12.5788 17.0575 12.8944 17.1612 13.1875H14.9019C15.0056 12.8944 15.0625 12.5788 15.0625 12.25C15.0625 10.6994 13.8006 9.4375 12.25 9.4375H8.5C3.81313 9.4375 0 13.2225 0 17.875V21.625C0 26.2775 3.81313 30.0625 8.5 30.0625H23.5625C28.215 30.0625 32 26.2775 32 21.625V17.875C32 13.2225 28.215 9.4375 23.5625 9.4375ZM17.875 24.4375H12.25C11.7325 24.4375 11.3125 24.8575 11.3125 25.375C11.3125 25.8925 11.7325 26.3125 12.25 26.3125H16C16.5169 26.3125 16.9375 26.7331 16.9375 27.25C16.9375 27.7669 16.5169 28.1875 16 28.1875H8.5C4.84688 28.1875 1.875 25.2437 1.875 21.625V17.875C1.875 14.2562 4.84688 11.3125 8.5 11.3125H12.25C12.7669 11.3125 13.1875 11.7331 13.1875 12.25C13.1875 12.7669 12.7669 13.1875 12.25 13.1875H8.5C7.9825 13.1875 7.5625 13.6075 7.5625 14.125C7.5625 14.6425 7.9825 15.0625 8.5 15.0625H17.875C18.3919 15.0625 18.8125 15.4831 18.8125 16C18.8125 16.5169 18.3919 16.9375 17.875 16.9375H12.25C11.7325 16.9375 11.3125 17.3575 11.3125 17.875C11.3125 18.3925 11.7325 18.8125 12.25 18.8125H17.875C18.3919 18.8125 18.8125 19.2331 18.8125 19.75C18.8125 20.2669 18.3919 20.6875 17.875 20.6875H12.25C11.7325 20.6875 11.3125 21.1075 11.3125 21.625C11.3125 22.1425 11.7325 22.5625 12.25 22.5625H17.875C18.3919 22.5625 18.8125 22.9831 18.8125 23.5C18.8125 24.0169 18.3919 24.4375 17.875 24.4375ZM30.125 21.625C30.125 25.2437 27.1812 28.1875 23.5625 28.1875H18.6513C18.755 27.8944 18.8125 27.5788 18.8125 27.25C18.8125 26.8838 18.7413 26.5344 18.6138 26.2131C19.8075 25.8881 20.6875 24.795 20.6875 23.5C20.6875 22.78 20.4156 22.1231 19.9694 21.625C20.4156 21.1269 20.6875 20.47 20.6875 19.75C20.6875 19.03 20.4156 18.3731 19.9694 17.875C20.4156 17.3769 20.6875 16.72 20.6875 16C20.6875 15.6712 20.63 15.3556 20.5263 15.0625H22.625V16C22.625 17.7531 23.3075 19.4012 24.5469 20.6406C24.9125 21.0063 25.507 21.0067 25.8731 20.6406C26.2394 20.2744 26.2394 19.6806 25.8731 19.3144C24.9875 18.4294 24.5 17.2519 24.5 16V14.125C24.5 13.6075 24.08 13.1875 23.5625 13.1875H19.8125C19.2956 13.1875 18.875 12.7669 18.875 12.25C18.875 11.7331 19.2956 11.3125 19.8125 11.3125H23.5625C27.1812 11.3125 30.125 14.2562 30.125 17.875V21.625Z" fill="#666666"/>
<path d="M16 1.9375C15.4822 1.9375 15.0625 2.35725 15.0625 2.875V5.6875C15.0625 6.20525 15.4822 6.625 16 6.625C16.5178 6.625 16.9375 6.20525 16.9375 5.6875V2.875C16.9375 2.35725 16.5178 1.9375 16 1.9375Z" fill="#666666"/>
<path d="M24.2254 4.08709C23.8593 3.72097 23.2657 3.72097 22.8996 4.08709L21.0246 5.96209C20.6585 6.32822 20.6585 6.92178 21.0246 7.28791C21.3907 7.65403 21.9843 7.65409 22.3504 7.28791L24.2254 5.41291C24.5915 5.04678 24.5915 4.45322 24.2254 4.08709Z" fill="#666666"/>
<path d="M11.0379 5.96209L9.16291 4.08709C8.79684 3.72097 8.20322 3.72097 7.83709 4.08709C7.47097 4.45322 7.47097 5.04678 7.83709 5.41291L9.7121 7.28791C10.0782 7.65403 10.6718 7.65409 11.0379 7.28791C11.404 6.92178 11.404 6.32822 11.0379 5.96209Z" fill="#666666"/>
</svg>
