<svg width="32" height="32" viewBox="0 0 32 32" fill="none" xmlns="http://www.w3.org/2000/svg">
<g clip-path="url(#clip0)">
<circle opacity="1" cx="15.5" cy="12.5" r="12.5" fill="#BDF6FF"/>
<path d="M32 6.77954V22.4023C31.9961 24.1006 31.3311 25.7014 30.1392 26.9104L25.1621 31.9583H21.6514L28.3589 25.1553C29.0884 24.4155 29.4978 23.4358 29.5 22.397V6.77417C29.5017 6.08447 28.9663 5.52246 28.2771 5.52075C28.2761 5.52075 28.2752 5.52075 28.2739 5.52075C27.9412 5.52075 27.6282 5.6499 27.3923 5.88477C27.1558 6.12036 27.001 6.43384 27.0003 6.76782V18.1018C27.0191 18.386 27.0034 18.6748 26.9509 18.9619C26.8779 19.364 26.697 20.1238 26.3091 20.6953C26.2505 20.7815 26.1411 20.9426 22.8601 25.0693C22.7114 25.2563 22.5642 25.4414 22.4192 25.6238C22.0608 24.7852 21.6362 23.9768 21.1487 23.2048C23.6917 20.0051 24.1653 19.3928 24.2454 19.2839C24.3047 19.1909 24.4194 18.9094 24.4915 18.5142C24.551 18.1873 24.4458 17.8535 24.21 17.6211C24.0198 17.4336 23.7656 17.3313 23.501 17.3333C23.2337 17.3352 22.9834 17.4409 22.7959 17.6313L17.7446 22.7505C19.544 24.8367 20.7166 27.3606 21.1506 30.0984L21.3992 31.6667L21.438 31.9583H18.9143L18.6814 30.49C18.2849 27.9885 17.1472 25.7019 15.3911 23.8772C15.3555 23.8401 15.3193 23.8032 15.2832 23.7666L9.20924 17.6108C8.82179 17.2178 8.18727 17.2134 7.79469 17.6003C7.55909 17.8328 7.45387 18.1667 7.51319 18.4934C7.58521 18.8889 7.7002 19.1704 7.75929 19.2634C8.04957 19.6587 11.531 24.0364 13.8169 26.9036L11.8623 28.4622C10.0813 26.2285 5.91554 20.9985 5.69557 20.6746C5.30787 20.103 5.12696 19.3435 5.05372 18.9414C4.99 18.5913 4.98097 18.2388 5.02223 17.8948L5.00001 17.8958V6.76709C4.99928 6.43384 4.86842 6.12036 4.63185 5.88477C4.39601 5.6499 4.08302 5.52075 3.75025 5.52075C3.74903 5.52075 3.7483 5.52075 3.74708 5.52075C3.05787 5.52246 2.49854 6.08447 2.50001 6.77368V22.3975C2.50245 23.4358 2.9358 24.4155 3.66529 25.1553L10.3728 31.9583H6.86183L1.88502 26.9104C0.692881 25.7014 0.00391584 24.1006 9.593e-06 22.4028V6.77905C-0.00462908 4.71167 1.67359 3.02563 3.74122 3.02075C4.74439 3.01758 5.68556 3.40625 6.39552 4.11304C7.10548 4.81958 7.49757 5.76025 7.50001 6.76196V14.9585C8.69923 14.6045 10.0513 14.9043 10.9888 15.8552L16.0125 20.9465L21.0159 15.8757C21.6719 15.2102 22.5483 14.8398 23.4832 14.8333C23.8547 14.8311 24.2178 14.8872 24.5625 14.9956V6.7627C24.565 5.76025 24.9187 4.81958 25.6287 4.11304C26.3364 3.40845 27.2756 3.02075 28.2737 3.02075H28.283C30.3506 3.02563 32.0047 4.71167 32 6.77954ZM16 14.1025L9.68897 10.9844V3.11743L16 0L22.311 3.11743V10.9844L16 14.1025ZM19.811 9.43115V5.90601L17.25 7.17139V10.6965L19.811 9.43115ZM16 2.78833L13.7612 3.89429L16 5.00049L18.2388 3.89429L16 2.78833ZM12.189 9.43115L14.75 10.6965V7.17139L12.189 5.90601V9.43115Z" fill="#666666"/>
</g>
<defs>
<clipPath id="clip0">
<rect width="32" height="32" fill="white"/>
</clipPath>
</defs>
</svg>
