<svg width="32" height="32" viewBox="0 0 32 32" fill="none" xmlns="http://www.w3.org/2000/svg">
<g clip-path="url(#clip0)">
<circle opacity="1" cx="12.5" cy="16.5" r="12.5" fill="#BDF6FF"/>
<path d="M29.1876 7.53158H12.1067V6.53293C12.1067 4.53549 10.5023 2.8836 8.53023 2.85073C7.54608 2.83261 6.61842 3.20491 5.91738 3.89432C5.21627 4.58386 4.8301 5.50515 4.8301 6.48849V7.53158H2.81241C1.26165 7.53158 0 8.79323 0 10.344V21.656C0 23.2068 1.26165 24.4684 2.81241 24.4684H6.70504V19.4655C6.70504 18.4848 7.48239 17.6739 8.43792 17.658C8.91541 17.6478 9.36502 17.8296 9.70476 18.1637C10.0446 18.4979 10.2318 18.9444 10.2318 19.421V24.4684H19.8933V25.5115C19.8933 26.4948 20.2795 27.4161 20.9806 28.1057C21.6668 28.7805 22.5702 29.1498 23.5307 29.1498C23.5515 29.1498 23.5725 29.1497 23.5934 29.1493C25.5655 29.1164 27.1699 27.4645 27.1699 25.4671V24.4684H29.1876C30.7384 24.4684 32 23.2068 32 21.656V10.344C32 8.79323 30.7384 7.53158 29.1876 7.53158ZM15.0619 17.7634V22.5935H12.1067V19.421C12.1067 18.4377 11.7206 17.5164 11.0195 16.8269C10.3184 16.1374 9.39077 15.7642 8.40668 15.7833C6.43461 15.8162 4.83016 17.468 4.83016 19.4655V22.5935H2.81241C2.29549 22.5935 1.87494 22.1729 1.87494 21.656V10.344C1.87494 9.82707 2.29549 9.40652 2.81241 9.40652H6.70504V6.48849C6.70504 6.01194 6.89222 5.5654 7.23209 5.23116C7.57183 4.89704 8.0215 4.71817 8.49899 4.72542C9.45446 4.74136 10.2318 5.55221 10.2318 6.53293V9.40652H15.0619V14.2366H17.9355C18.9162 14.2366 19.7271 15.014 19.7431 15.9695C19.751 16.4467 19.5714 16.8967 19.2373 17.2364C18.9031 17.5763 18.4565 17.7635 17.98 17.7635H15.0619V17.7634ZM30.1251 21.656C30.1251 22.1729 29.7045 22.5935 29.1876 22.5935H25.295V25.4671C25.295 26.4478 24.5176 27.2587 23.5621 27.2746C23.0835 27.2824 22.635 27.1029 22.2952 26.7689C21.9554 26.4346 21.7682 25.9881 21.7682 25.5115V22.5935H16.9381V19.6383H17.9799C18.9632 19.6383 19.8845 19.2522 20.574 18.5511C21.2635 17.8501 21.6341 16.9222 21.6177 15.9383C21.5848 13.9661 19.9329 12.3617 17.9354 12.3617H16.9381V9.40652H29.1876C29.7045 9.40652 30.1251 9.82707 30.1251 10.344V21.656Z" fill="#666666"/>
</g>
<defs>
<clipPath id="clip0">
<rect width="32" height="32" fill="white"/>
</clipPath>
</defs>
</svg>
