<svg width="32" height="32" viewBox="0 0 32 32" fill="none" xmlns="http://www.w3.org/2000/svg">
<g clip-path="url(#clip0)">
<circle opacity="1" cx="17.5" cy="19.5" r="12.5" fill="#BDF6FF"/>
<path d="M14.0718 17.2486C15.2515 16.069 15.2517 14.1594 14.0718 12.9796C12.8922 11.7999 10.9826 11.7997 9.80281 12.9796C8.62312 14.1592 8.62293 16.0688 9.80281 17.2486C10.9824 18.4283 12.892 18.4285 14.0718 17.2486ZM11.9373 14.1123C12.491 14.1123 12.9391 14.5604 12.9391 15.1141C12.9391 15.9989 11.8615 16.4551 11.2289 15.8225C10.6035 15.197 11.0423 14.1123 11.9373 14.1123Z" fill="#666666"/>
<path d="M20.0617 20.2195C18.3935 20.2195 17.043 21.5695 17.043 23.2381C17.043 25.9272 20.3109 27.2579 22.1962 25.3727C24.1073 23.4616 22.7229 20.2195 20.0617 20.2195ZM20.77 23.9465C20.3794 24.3371 19.7439 24.337 19.3533 23.9465C18.9618 23.555 18.9617 22.9214 19.3533 22.5297C19.7447 22.1382 20.3784 22.1381 20.77 22.5297C21.1615 22.9213 21.1615 23.5549 20.77 23.9465Z" fill="#666666"/>
<path d="M20.6549 14.5217C20.2611 14.1279 19.6226 14.1279 19.2288 14.5217L11.4362 22.3144C10.799 22.9515 11.259 24.0359 12.1492 24.0359C12.4073 24.0359 12.6653 23.9374 12.8623 23.7405L20.6549 15.9478C21.0488 15.5541 21.0488 14.9155 20.6549 14.5217Z" fill="#666666"/>
<path d="M25.5941 6.02576L18.4147 0.786048C16.9803 -0.260786 15.0519 -0.262109 13.616 0.782645L6.41147 6.02513C5.24576 6.87337 4.5498 8.24045 4.5498 9.68215V27.1462C4.5498 29.8226 6.72724 32 9.40366 32H22.5966C25.2731 32 27.4505 29.8226 27.4505 27.1462V9.679C27.4506 8.23988 26.7565 6.87419 25.5941 6.02576ZM25.4337 27.1462C25.4337 28.7105 24.161 29.9831 22.5966 29.9831H9.40372C7.83943 29.9831 6.56677 28.7105 6.56677 27.1462V9.68215C6.56677 8.8834 6.95237 8.12592 7.59822 7.65599L14.8028 2.41356C15.5212 1.89074 16.495 1.88192 17.2258 2.41526L24.405 7.65491C25.0492 8.12498 25.4337 8.88169 25.4337 9.679V27.1462Z" fill="#666666"/>
<path d="M16.0454 6.84413C16.6329 6.84413 17.1093 6.3678 17.1093 5.78022C17.1093 5.19264 16.6329 4.71631 16.0454 4.71631C15.4578 4.71631 14.9814 5.19264 14.9814 5.78022C14.9814 6.3678 15.4578 6.84413 16.0454 6.84413Z" fill="#666666"/>
</g>
<defs>
<clipPath id="clip0">
<rect width="32" height="32" fill="white"/>
</clipPath>
</defs>
</svg>
