<svg width="32" height="32" viewBox="0 0 32 32" fill="none" xmlns="http://www.w3.org/2000/svg">
<g clip-path="url(#clip0)">
<circle opacity="1" cx="15.5" cy="17.5" r="12.5" fill="#BDF6FF"/>
<path d="M16 5.2558C12.103 5.2558 8.93262 8.42617 8.93262 12.3232C8.93262 16.2202 12.1031 19.3905 16 19.3905C19.8968 19.3905 23.0673 16.2201 23.0673 12.3231C23.0673 8.42611 19.8969 5.2558 16 5.2558ZM16 17.515C13.1372 17.515 10.8081 15.1859 10.8081 12.3231C10.8081 9.46029 13.1372 7.13124 16 7.13124C18.8628 7.13124 21.1918 9.46029 21.1918 12.3231C21.1918 15.1859 18.8628 17.515 16 17.515Z" fill="#666666"/>
<path d="M28.0159 9.58079L25.8617 7.57455L25.6302 4.6418L22.822 3.76774L21.3477 1.22112L18.4356 1.65L15.9996 0L13.5636 1.65006L10.6516 1.22119L9.17733 3.76781L6.36921 4.64187L6.13771 7.57461L3.98346 9.58086L5.05296 12.3232L3.9834 15.0655L6.13764 17.0718L6.36914 20.0045L9.17733 20.8786L10.2066 22.6566V32.0001L15.9996 29.1919L21.7926 32V22.6564L22.8219 20.8785L25.63 20.0044L25.8615 17.0717L28.0158 15.0654L26.9463 12.323L28.0159 9.58079ZM19.9171 29.0066L15.9996 27.1077L12.0821 29.0066V23.2145L13.5636 22.9963L15.9996 24.6463L18.4356 22.9963L19.9171 23.2145V29.0066ZM25.8059 14.5607L24.0493 16.1966L23.8603 18.591L21.5656 19.3053L20.362 21.3841L17.9875 21.0344L15.9996 22.381L14.0118 21.0345L11.6372 21.3842L10.4337 19.3053L8.13895 18.5911L7.94995 16.1967L6.19339 14.5607L7.06608 12.3231L6.19339 10.0855L7.95002 8.44967L8.13901 6.05524L10.4338 5.34099L11.6373 3.26212L14.0118 3.61187L15.9996 2.26525L17.9875 3.61181L20.3621 3.26206L21.5656 5.34093L23.8603 6.05518L24.0493 8.44961L25.8059 10.0855L24.9332 12.3231L25.8059 14.5607Z" fill="#666666"/>
</g>
<defs>
<clipPath id="clip0">
<rect width="32" height="32" fill="white"/>
</clipPath>
</defs>
</svg>
